{
	"asset":{
		"version":"2.0",
		"generator":"Created using the official Cinema 4D glTF Exporter 1.000x284978"
	},
	"scenes":[{
		"nodes":[0]
	}],
	"nodes":[{
		"name":"w1ll",
		"translation":[0.0,
		0.0,
		0.0],
		"rotation":[1.0,
		-6.123234262925839e-17,
		6.123234262925839e-17,
		-5.053215392444312e-16],
		"scale":[1.0,
		1.0,
		1.0],
		"children":[1]
	},
	{
		"name":"w1ll",
		"children":[2,
		3]
	},
	{
		"name":"w1ll-k",
		"mesh":0
	},
	{
		"name":"w1ll-b",
		"mesh":1
	}],
	"meshes":[{
		"name":"w1ll-k",
		"primitives":[{
			"attributes":{
				"POSITION":1,
				"NORMAL":2,
				"TEXCOORD_0":3
			},
			"indices":0,
			"material":0
		}]
	},
	{
		"name":"w1ll-b",
		"primitives":[{
			"attributes":{
				"POSITION":5,
				"NORMAL":6,
				"TEXCOORD_0":7
			},
			"indices":4,
			"material":1
		}]
	}],
	"accessors":[{
		"type":"SCALAR",
		"bufferView":0,
		"componentType":5123,
		"max":[2331],
		"count":9828,
		"byteOffset":0,
		"min":[0]
	},
	{
		"type":"VEC3",
		"bufferView":1,
		"componentType":5126,
		"max":[403.46551513671877,
		81.32564544677735,
		1001.0],
		"count":2332,
		"byteOffset":0,
		"min":[-403.46551513671877,
		-81.32564544677735,
		-1001.0]
	},
	{
		"type":"VEC3",
		"bufferView":1,
		"componentType":5126,
		"max":[0.9994375705718994,
		0.9999688267707825,
		1.0],
		"count":2332,
		"byteOffset":12,
		"min":[-1.0,
		-1.0,
		-1.0]
	},
	{
		"type":"VEC2",
		"bufferView":1,
		"componentType":5126,
		"max":[1.0,
		1.0],
		"count":2332,
		"byteOffset":24,
		"min":[0.0,
		0.0]
	},
	{
		"type":"SCALAR",
		"bufferView":2,
		"componentType":5123,
		"max":[167],
		"count":444,
		"byteOffset":0,
		"min":[0]
	},
	{
		"type":"VEC3",
		"bufferView":3,
		"componentType":5126,
		"max":[399.5003967285156,
		81.2325439453125,
		1000.0],
		"count":168,
		"byteOffset":0,
		"min":[-399.49853515625,
		-77.4554443359375,
		-1000.0]
	},
	{
		"type":"VEC3",
		"bufferView":3,
		"componentType":5126,
		"max":[0.9989063143730164,
		0.9999688267707825,
		0.0],
		"count":168,
		"byteOffset":12,
		"min":[-0.9998750686645508,
		-0.9272813200950623,
		0.0]
	},
	{
		"type":"VEC2",
		"bufferView":3,
		"componentType":5126,
		"max":[0.7462095022201538,
		1.0],
		"count":168,
		"byteOffset":24,
		"min":[0.2542022168636322,
		0.0]
	}],
	"bufferViews":[{
		"buffer":0,
		"byteOffset":0,
		"byteLength":19656,
		"target":34963
	},
	{
		"buffer":0,
		"byteOffset":19656,
		"byteLength":74624,
		"target":34962,
		"byteStride":32
	},
	{
		"buffer":1,
		"byteOffset":0,
		"byteLength":888,
		"target":34963
	},
	{
		"buffer":1,
		"byteOffset":888,
		"byteLength":5376,
		"target":34962,
		"byteStride":32
	}],
	"buffers":[{
		"uri":"data:application/octet-stream;base64,",
		"byteLength":94280
	},
	{
		"uri":"data:application/octet-stream;base64,",
		"byteLength":6264
	}],
	"materials":[{
		"doubleSided":false,
		"pbrMetallicRoughness":{
			"baseColorFactor":[0.35294117647058828,
			0.0588235294117647,
			0.035294117647058819,
			1.0],
			"metallicFactor":0.0,
			"roughnessFactor":0.2
		},
		"emissiveFactor":[0.0,
		0.0,
		0.0],
		"alphaMode":"OPAQUE",
		"name":"k"
	},
	{
		"doubleSided":false,
		"pbrMetallicRoughness":{
			"baseColorFactor":[0.7411764705882353,
			0.7411764705882353,
			0.7411764705882353,
			1.0],
			"metallicFactor":0.0,
			"roughnessFactor":0.2
		},
		"emissiveFactor":[0.0,
		0.0,
		0.0],
		"alphaMode":"OPAQUE",
		"name":"b"
	}]
}