{
	"asset":{
		"version":"2.0",
		"generator":"Created using the official Cinema 4D glTF Exporter 1.000x284978"
	},
	"scenes":[{
		"nodes":[0]
	}],
	"nodes":[{
		"name":"w1ll",
		"translation":[0.0,
		0.0,
		0.0],
		"rotation":[1.0,
		-6.123234262925839e-17,
		6.123234262925839e-17,
		-7.273661441694625e-16],
		"scale":[1.0,
		1.0,
		1.0],
		"children":[1]
	},
	{
		"name":"w1ll",
		"children":[2,
		3]
	},
	{
		"name":"w1ll-k",
		"mesh":0
	},
	{
		"name":"w1ll-b",
		"mesh":1
	}],
	"meshes":[{
		"name":"w1ll-k",
		"primitives":[{
			"attributes":{
				"POSITION":1,
				"NORMAL":2,
				"TEXCOORD_0":3
			},
			"indices":0,
			"material":0
		}]
	},
	{
		"name":"w1ll-b",
		"primitives":[{
			"attributes":{
				"POSITION":5,
				"NORMAL":6,
				"TEXCOORD_0":7
			},
			"indices":4,
			"material":1
		}]
	}],
	"accessors":[{
		"type":"SCALAR",
		"bufferView":0,
		"componentType":5123,
		"max":[2915],
		"count":13170,
		"byteOffset":0,
		"min":[0]
	},
	{
		"type":"VEC3",
		"bufferView":1,
		"componentType":5126,
		"max":[351.8967590332031,
		159.95620727539063,
		1000.3699951171875],
		"count":2916,
		"byteOffset":0,
		"min":[-351.8967590332031,
		-159.95620727539063,
		-1000.3699951171875]
	},
	{
		"type":"VEC3",
		"bufferView":1,
		"componentType":5126,
		"max":[1.0,
		0.9987813234329224,
		1.0],
		"count":2916,
		"byteOffset":12,
		"min":[-1.0,
		-1.0,
		-1.0]
	},
	{
		"type":"VEC2",
		"bufferView":1,
		"componentType":5126,
		"max":[1.0,
		1.0],
		"count":2916,
		"byteOffset":24,
		"min":[0.0,
		0.0]
	},
	{
		"type":"SCALAR",
		"bufferView":2,
		"componentType":5123,
		"max":[131],
		"count":354,
		"byteOffset":0,
		"min":[0]
	},
	{
		"type":"VEC3",
		"bufferView":3,
		"componentType":5126,
		"max":[351.8967590332031,
		159.95620727539063,
		1000.0],
		"count":132,
		"byteOffset":0,
		"min":[-350.8967590332031,
		-156.95620727539063,
		-1000.0]
	},
	{
		"type":"VEC3",
		"bufferView":3,
		"componentType":5126,
		"max":[0.9997813105583191,
		1.0,
		0.0],
		"count":132,
		"byteOffset":12,
		"min":[-1.0,
		-0.6549062728881836,
		0.0]
	},
	{
		"type":"VEC2",
		"bufferView":3,
		"componentType":5126,
		"max":[0.9988154768943787,
		1.0],
		"count":132,
		"byteOffset":24,
		"min":[0.49769678711891177,
		0.0]
	}],
	"bufferViews":[{
		"buffer":0,
		"byteOffset":0,
		"byteLength":26340,
		"target":34963
	},
	{
		"buffer":0,
		"byteOffset":26340,
		"byteLength":93312,
		"target":34962,
		"byteStride":32
	},
	{
		"buffer":1,
		"byteOffset":0,
		"byteLength":708,
		"target":34963
	},
	{
		"buffer":1,
		"byteOffset":708,
		"byteLength":4224,
		"target":34962,
		"byteStride":32
	}],
	"buffers":[{
		"uri":"data:application/octet-stream;base64,",
		"byteLength":119652
	},
	{
		"uri":"data:application/octet-stream;base64,",
		"byteLength":4932
	}],
	"materials":[{
		"doubleSided":false,
		"pbrMetallicRoughness":{
			"baseColorFactor":[0.35294117647058828,
			0.0588235294117647,
			0.035294117647058819,
			1.0],
			"metallicFactor":0.0,
			"roughnessFactor":0.2
		},
		"emissiveFactor":[0.0,
		0.0,
		0.0],
		"alphaMode":"OPAQUE",
		"name":"k"
	},
	{
		"doubleSided":false,
		"pbrMetallicRoughness":{
			"baseColorFactor":[0.7411764705882353,
			0.7411764705882353,
			0.7411764705882353,
			1.0],
			"metallicFactor":0.0,
			"roughnessFactor":0.2
		},
		"emissiveFactor":[0.0,
		0.0,
		0.0],
		"alphaMode":"OPAQUE",
		"name":"b"
	}]
}