{
	"asset":{
		"version":"2.0",
		"generator":"Created using the official Cinema 4D glTF Exporter 1.000x284978"
	},
	"scenes":[{
		"nodes":[0]
	}],
	"nodes":[{
		"name":"w1ll",
		"translation":[0.0,
		0.0,
		0.0],
		"rotation":[1.0,
		-6.123234262925839e-17,
		6.123234262925839e-17,
		-6.123234262925839e-17],
		"scale":[1.0,
		1.0,
		1.0],
		"children":[1]
	},
	{
		"name":"w1ll",
		"children":[2,
		3]
	},
	{
		"name":"w1ll-k",
		"mesh":0
	},
	{
		"name":"w1ll-b",
		"mesh":1
	}],
	"meshes":[{
		"name":"w1ll-k",
		"primitives":[{
			"attributes":{
				"POSITION":1,
				"NORMAL":2,
				"TEXCOORD_0":3
			},
			"indices":0,
			"material":0
		}]
	},
	{
		"name":"w1ll-b",
		"primitives":[{
			"attributes":{
				"POSITION":5,
				"NORMAL":6,
				"TEXCOORD_0":7
			},
			"indices":4,
			"material":1
		}]
	}],
	"accessors":[{
		"type":"SCALAR",
		"bufferView":0,
		"componentType":5123,
		"max":[3021],
		"count":12408,
		"byteOffset":0,
		"min":[0]
	},
	{
		"type":"VEC3",
		"bufferView":1,
		"componentType":5126,
		"max":[277.27777099609377,
		236.55589294433595,
		1001.0],
		"count":3022,
		"byteOffset":0,
		"min":[-277.27777099609377,
		-236.55589294433595,
		-1001.0]
	},
	{
		"type":"VEC3",
		"bufferView":1,
		"componentType":5126,
		"max":[0.9999688267707825,
		0.9998750686645508,
		1.0],
		"count":3022,
		"byteOffset":12,
		"min":[-1.0,
		-1.0,
		-1.0]
	},
	{
		"type":"VEC2",
		"bufferView":1,
		"componentType":5126,
		"max":[1.0,
		1.0],
		"count":3022,
		"byteOffset":24,
		"min":[0.0,
		0.0]
	},
	{
		"type":"SCALAR",
		"bufferView":2,
		"componentType":5123,
		"max":[233],
		"count":636,
		"byteOffset":0,
		"min":[0]
	},
	{
		"type":"VEC3",
		"bufferView":3,
		"componentType":5126,
		"max":[274.1073303222656,
		233.4345703125,
		1000.0],
		"count":234,
		"byteOffset":0,
		"min":[-274.1835632324219,
		-233.55589294433595,
		-1000.0]
	},
	{
		"type":"VEC3",
		"bufferView":3,
		"componentType":5126,
		"max":[1.0,
		1.0,
		0.0],
		"count":234,
		"byteOffset":12,
		"min":[-0.999625027179718,
		-0.9996563196182251,
		0.0]
	},
	{
		"type":"VEC2",
		"bufferView":3,
		"componentType":5126,
		"max":[0.4935033321380615,
		1.0],
		"count":234,
		"byteOffset":24,
		"min":[0.000713491695933044,
		0.0]
	}],
	"bufferViews":[{
		"buffer":0,
		"byteOffset":0,
		"byteLength":24816,
		"target":34963
	},
	{
		"buffer":0,
		"byteOffset":24816,
		"byteLength":96704,
		"target":34962,
		"byteStride":32
	},
	{
		"buffer":1,
		"byteOffset":0,
		"byteLength":1272,
		"target":34963
	},
	{
		"buffer":1,
		"byteOffset":1272,
		"byteLength":7488,
		"target":34962,
		"byteStride":32
	}],
	"buffers":[{
		"uri":"data:application/octet-stream;base64,",
		"byteLength":121520
	},
	{
		"uri":"data:application/octet-stream;base64,",
		"byteLength":8760
	}],
	"materials":[{
		"doubleSided":false,
		"pbrMetallicRoughness":{
			"baseColorFactor":[0.35294117647058828,
			0.0588235294117647,
			0.035294117647058819,
			1.0],
			"metallicFactor":0.0,
			"roughnessFactor":0.2
		},
		"emissiveFactor":[0.0,
		0.0,
		0.0],
		"alphaMode":"OPAQUE",
		"name":"k"
	},
	{
		"doubleSided":false,
		"pbrMetallicRoughness":{
			"baseColorFactor":[0.7411764705882353,
			0.7411764705882353,
			0.7411764705882353,
			1.0],
			"metallicFactor":0.0,
			"roughnessFactor":0.2
		},
		"emissiveFactor":[0.0,
		0.0,
		0.0],
		"alphaMode":"OPAQUE",
		"name":"b"
	}]
}