{
	"asset":{
		"version":"2.0",
		"generator":"Created using the official Cinema 4D glTF Exporter 1.000x284978"
	},
	"scenes":[{
		"nodes":[0]
	}],
	"nodes":[{
		"name":"w1ll",
		"translation":[0.0,
		-3.183231456205249e-12,
		-1.9491671317606185e-28],
		"rotation":[-0.7071067690849304,
		0.0,
		0.0,
		-0.7071067690849304],
		"scale":[1.0,
		1.0,
		1.0],
		"children":[1]
	},
	{
		"name":"w1ll",
		"children":[2,
		3]
	},
	{
		"name":"w1ll-k",
		"mesh":0
	},
	{
		"name":"w1ll-b",
		"mesh":1
	}],
	"meshes":[{
		"name":"w1ll-k",
		"primitives":[{
			"attributes":{
				"POSITION":1,
				"NORMAL":2,
				"TEXCOORD_0":3
			},
			"indices":0,
			"material":0
		}]
	},
	{
		"name":"w1ll-b",
		"primitives":[{
			"attributes":{
				"POSITION":5,
				"NORMAL":6,
				"TEXCOORD_0":7
			},
			"indices":4,
			"material":1
		}]
	}],
	"accessors":[{
		"type":"SCALAR",
		"bufferView":0,
		"componentType":5123,
		"max":[2541],
		"count":10674,
		"byteOffset":0,
		"min":[0]
	},
	{
		"type":"VEC3",
		"bufferView":1,
		"componentType":5126,
		"max":[195.5,
		1001.0,
		195.5],
		"count":2542,
		"byteOffset":0,
		"min":[-195.5,
		-1001.0,
		-195.5]
	},
	{
		"type":"VEC3",
		"bufferView":1,
		"componentType":5126,
		"max":[1.0,
		1.0,
		1.0],
		"count":2542,
		"byteOffset":12,
		"min":[-1.0,
		-1.0,
		-1.0]
	},
	{
		"type":"VEC2",
		"bufferView":1,
		"componentType":5126,
		"max":[1.0,
		1.0],
		"count":2542,
		"byteOffset":24,
		"min":[0.0,
		0.0]
	},
	{
		"type":"SCALAR",
		"bufferView":2,
		"componentType":5123,
		"max":[123],
		"count":330,
		"byteOffset":0,
		"min":[0]
	},
	{
		"type":"VEC3",
		"bufferView":3,
		"componentType":5126,
		"max":[192.5,
		1000.0,
		191.5],
		"count":124,
		"byteOffset":0,
		"min":[-192.5,
		-1000.0,
		-192.5]
	},
	{
		"type":"VEC3",
		"bufferView":3,
		"componentType":5126,
		"max":[1.0,
		0.0,
		1.0],
		"count":124,
		"byteOffset":12,
		"min":[-1.0,
		0.0,
		-1.0]
	},
	{
		"type":"VEC2",
		"bufferView":3,
		"componentType":5126,
		"max":[0.4906037449836731,
		1.0],
		"count":124,
		"byteOffset":24,
		"min":[0.0378144346177578,
		0.0]
	}],
	"bufferViews":[{
		"buffer":0,
		"byteOffset":0,
		"byteLength":21348,
		"target":34963
	},
	{
		"buffer":0,
		"byteOffset":21348,
		"byteLength":81344,
		"target":34962,
		"byteStride":32
	},
	{
		"buffer":1,
		"byteOffset":0,
		"byteLength":660,
		"target":34963
	},
	{
		"buffer":1,
		"byteOffset":660,
		"byteLength":3968,
		"target":34962,
		"byteStride":32
	}],
	"buffers":[{
		"uri":"data:application/octet-stream;base64,",
		"byteLength":102692
	},
	{
		"uri":"data:application/octet-stream;base64,",
		"byteLength":4628
	}],
	"materials":[{
		"doubleSided":false,
		"pbrMetallicRoughness":{
			"baseColorFactor":[0.35294117647058828,
			0.0588235294117647,
			0.035294117647058819,
			1.0],
			"metallicFactor":0.0,
			"roughnessFactor":0.2
		},
		"emissiveFactor":[0.0,
		0.0,
		0.0],
		"alphaMode":"OPAQUE",
		"name":"k"
	},
	{
		"doubleSided":false,
		"pbrMetallicRoughness":{
			"baseColorFactor":[0.7411764705882353,
			0.7411764705882353,
			0.7411764705882353,
			1.0],
			"metallicFactor":0.0,
			"roughnessFactor":0.2
		},
		"emissiveFactor":[0.0,
		0.0,
		0.0],
		"alphaMode":"OPAQUE",
		"name":"b"
	}]
}