{
  "asset": {
    "version": "2.0",
    "generator": "Created using the official Cinema 4D glTF Exporter 1.000x284978"
  },
  "scenes": [
    {
      "nodes": [0]
    }
  ],
  "nodes": [
    {
      "name": "w1ll",
      "translation": [0.0, 0.0, 0.0],
      "rotation": [1.0, -6.123234262925839e-17, 1, -5.053215392444312e-16],
      "scale": [1.0, 1.0, 1.0],
      "children": [1]
    },
    {
      "name": "w1ll",
      "children": [2, 3]
    },
    {
      "name": "w1ll-k",
      "mesh": 0
    },
    {
      "name": "w1ll-b",
      "mesh": 1
    }
  ],
  "meshes": [
    {
      "name": "w1ll-k",
      "primitives": [
        {
          "attributes": {
            "POSITION": 1,
            "NORMAL": 2,
            "TEXCOORD_0": 3
          },
          "indices": 0,
          "material": 0
        }
      ]
    },
    {
      "name": "w1ll-b",
      "primitives": [
        {
          "attributes": {
            "POSITION": 5,
            "NORMAL": 6,
            "TEXCOORD_0": 7
          },
          "indices": 4,
          "material": 1
        }
      ]
    }
  ],
  "accessors": [
    {
      "type": "SCALAR",
      "bufferView": 0,
      "componentType": 5123,
      "max": [3431],
      "count": 12612,
      "byteOffset": 0,
      "min": [0]
    },
    {
      "type": "VEC3",
      "bufferView": 1,
      "componentType": 5126,
      "max": [522.300048828125, 120.10232543945313, 1001.0],
      "count": 3432,
      "byteOffset": 0,
      "min": [-522.300048828125, -120.10232543945313, -1001.0]
    },
    {
      "type": "VEC3",
      "bufferView": 1,
      "componentType": 5126,
      "max": [1.0, 0.9996563196182251, 1.0],
      "count": 3432,
      "byteOffset": 12,
      "min": [-1.0, -1.0, -1.0]
    },
    {
      "type": "VEC2",
      "bufferView": 1,
      "componentType": 5126,
      "max": [1.0, 1.0],
      "count": 3432,
      "byteOffset": 24,
      "min": [0.0, 0.0]
    },
    {
      "type": "SCALAR",
      "bufferView": 2,
      "componentType": 5123,
      "max": [229],
      "count": 612,
      "byteOffset": 0,
      "min": [0]
    },
    {
      "type": "VEC3",
      "bufferView": 3,
      "componentType": 5126,
      "max": [519.2345581054688, 116.96471405029297, 1000.0],
      "count": 230,
      "byteOffset": 0,
      "min": [-519.2345581054688, -117.10232543945313, -1000.0]
    },
    {
      "type": "VEC3",
      "bufferView": 3,
      "componentType": 5126,
      "max": [0.9987813234329224, 1.0, 0.0],
      "count": 230,
      "byteOffset": 12,
      "min": [-0.9987813234329224, -0.9988750219345093, 0.0]
    },
    {
      "type": "VEC2",
      "bufferView": 3,
      "componentType": 5126,
      "max": [0.9976634979248047, 1.0],
      "count": 230,
      "byteOffset": 24,
      "min": [0.5047686100006104, 0.0]
    }
  ],
  "bufferViews": [
    {
      "buffer": 0,
      "byteOffset": 0,
      "byteLength": 25224,
      "target": 34963
    },
    {
      "buffer": 0,
      "byteOffset": 25224,
      "byteLength": 109824,
      "target": 34962,
      "byteStride": 32
    },
    {
      "buffer": 1,
      "byteOffset": 0,
      "byteLength": 1224,
      "target": 34963
    },
    {
      "buffer": 1,
      "byteOffset": 1224,
      "byteLength": 7360,
      "target": 34962,
      "byteStride": 32
    }
  ],
  "buffers": [
    {
      "uri": "data:application/octet-stream;base64,",
      "byteLength": 135048
    },
    {
      "uri": "data:application/octet-stream;base64,",
      "byteLength": 8584
    }
  ],
  "materials": [
    {
      "doubleSided": false,
      "pbrMetallicRoughness": {
        "baseColorFactor": [0.35294117647058828, 0.0588235294117647, 0.035294117647058819, 1.0],
        "metallicFactor": 0.0,
        "roughnessFactor": 0.2
      },
      "emissiveFactor": [0.0, 0.0, 0.0],
      "alphaMode": "OPAQUE",
      "name": "k"
    },
    {
      "doubleSided": false,
      "pbrMetallicRoughness": {
        "baseColorFactor": [0.7411764705882353, 0.7411764705882353, 0.7411764705882353, 1.0],
        "metallicFactor": 0.0,
        "roughnessFactor": 0.2
      },
      "emissiveFactor": [0.0, 0.0, 0.0],
      "alphaMode": "OPAQUE",
      "name": "b"
    }
  ]
}
