{
	"asset":{
		"version":"2.0",
		"generator":"Created using the official Cinema 4D glTF Exporter 1.000x284978"
	},
	"scenes":[{
		"nodes":[0]
	}],
	"nodes":[{
		"name":"w1ll",
		"translation":[0.0,
		0.0,
		0.0],
		"rotation":[0.5,
		-0.5,
		-0.5,
		0.5],
		"scale":[1.0,
		1.0,
		1.0],
		"children":[1]
	},
	{
		"name":"w1ll",
		"children":[2,
		3]
	},
	{
		"name":"w1ll-k",
		"mesh":0
	},
	{
		"name":"w1ll-b",
		"mesh":1
	}],
	"meshes":[{
		"name":"w1ll-k",
		"primitives":[{
			"attributes":{
				"POSITION":1,
				"NORMAL":2,
				"TEXCOORD_0":3
			},
			"indices":0,
			"material":0
		}]
	},
	{
		"name":"w1ll-b",
		"primitives":[{
			"attributes":{
				"POSITION":5,
				"NORMAL":6,
				"TEXCOORD_0":7
			},
			"indices":4,
			"material":1
		}]
	}],
	"accessors":[{
		"type":"SCALAR",
		"bufferView":0,
		"componentType":5123,
		"max":[3175],
		"count":14664,
		"byteOffset":0,
		"min":[0]
	},
	{
		"type":"VEC3",
		"bufferView":1,
		"componentType":5126,
		"max":[198.9646759033203,
		1001.0,
		198.9646759033203],
		"count":3176,
		"byteOffset":0,
		"min":[-198.9646759033203,
		-1001.0,
		-198.9646759033203]
	},
	{
		"type":"VEC3",
		"bufferView":1,
		"componentType":5126,
		"max":[1.0,
		1.0,
		1.0],
		"count":3176,
		"byteOffset":12,
		"min":[-1.0,
		-1.0,
		-1.0]
	},
	{
		"type":"VEC2",
		"bufferView":1,
		"componentType":5126,
		"max":[1.0,
		1.0],
		"count":3176,
		"byteOffset":24,
		"min":[0.0,
		0.0]
	},
	{
		"type":"SCALAR",
		"bufferView":2,
		"componentType":5123,
		"max":[87],
		"count":228,
		"byteOffset":0,
		"min":[0]
	},
	{
		"type":"VEC3",
		"bufferView":3,
		"componentType":5126,
		"max":[195.9646759033203,
		1000.0,
		195.62135314941407],
		"count":88,
		"byteOffset":0,
		"min":[-195.62135314941407,
		-1000.0,
		-195.9646759033203]
	},
	{
		"type":"VEC3",
		"bufferView":3,
		"componentType":5126,
		"max":[1.0,
		0.0,
		1.0],
		"count":88,
		"byteOffset":12,
		"min":[-1.0,
		0.0,
		-1.0]
	},
	{
		"type":"VEC2",
		"bufferView":3,
		"componentType":5126,
		"max":[0.9986156821250916,
		1.0],
		"count":88,
		"byteOffset":24,
		"min":[0.5046002268791199,
		0.0]
	}],
	"bufferViews":[{
		"buffer":0,
		"byteOffset":0,
		"byteLength":29328,
		"target":34963
	},
	{
		"buffer":0,
		"byteOffset":29328,
		"byteLength":101632,
		"target":34962,
		"byteStride":32
	},
	{
		"buffer":1,
		"byteOffset":0,
		"byteLength":456,
		"target":34963
	},
	{
		"buffer":1,
		"byteOffset":456,
		"byteLength":2816,
		"target":34962,
		"byteStride":32
	}],
	"buffers":[{
		"uri":"data:application/octet-stream;base64,",
		"byteLength":130960
	},
	{
		"uri":"data:application/octet-stream;base64,",
		"byteLength":3272
	}],
	"materials":[{
		"doubleSided":false,
		"pbrMetallicRoughness":{
			"baseColorFactor":[0.35294117647058828,
			0.0588235294117647,
			0.035294117647058819,
			1.0],
			"metallicFactor":0.0,
			"roughnessFactor":0.2
		},
		"emissiveFactor":[0.0,
		0.0,
		0.0],
		"alphaMode":"OPAQUE",
		"name":"k"
	},
	{
		"doubleSided":false,
		"pbrMetallicRoughness":{
			"baseColorFactor":[0.7411764705882353,
			0.7411764705882353,
			0.7411764705882353,
			1.0],
			"metallicFactor":0.0,
			"roughnessFactor":0.2
		},
		"emissiveFactor":[0.0,
		0.0,
		0.0],
		"alphaMode":"OPAQUE",
		"name":"b"
	}]
}